<svg style="display: none;" aria-hidden="true" xmlns="http://www.w3.org/2000/svg" xmlns:xlink="http://www.w3.org/1999/xlink"><symbol viewBox="0 0 20 20" fill="none" id="svg-cross"><path fill-rule="evenodd" clip-rule="evenodd" d="M0.292893 0.292893C0.683417 -0.0976311 1.31658 -0.0976311 1.70711 0.292893L19.7071 18.2929C20.0976 18.6834 20.0976 19.3166 19.7071 19.7071C19.3166 20.0976 18.6834 20.0976 18.2929 19.7071L0.292893 1.70711C-0.0976311 1.31658 -0.0976311 0.683417 0.292893 0.292893Z" fill="currentcolor"/><path fill-rule="evenodd" clip-rule="evenodd" d="M19.7071 0.292893C20.0976 0.683417 20.0976 1.31658 19.7071 1.70711L1.70711 19.7071C1.31658 20.0976 0.683417 20.0976 0.292893 19.7071C-0.0976311 19.3166 -0.0976311 18.6834 0.292893 18.2929L18.2929 0.292893C18.6834 -0.0976311 19.3166 -0.0976311 19.7071 0.292893Z" fill="currentcolor"/></symbol><symbol viewBox="0 0 22 23" fill="none" id="svg-mail"><g clip-path="url(#bclip0_129_18)"><path d="M19.2864 3.69458H2.68359C1.20392 3.69458 0 4.8985 0 6.37817V15.9261C0 17.4058 1.20392 18.6097 2.68359 18.6097H19.2864C20.7661 18.6097 21.97 17.4058 21.97 15.9261V6.37846C21.9703 4.8985 20.7664 3.69458 19.2864 3.69458ZM17.9751 5.44532L10.985 9.9488L3.99489 5.44532H17.9751ZM19.2864 16.8592H2.68359C2.16916 16.8592 1.75074 16.4405 1.75074 15.9264V6.42806L10.4449 12.0188C10.4566 12.026 10.4691 12.031 10.4811 12.0377C10.4936 12.0447 10.5065 12.0514 10.5193 12.0579C10.5867 12.0926 10.6562 12.1206 10.7271 12.139C10.7344 12.141 10.7416 12.1419 10.7489 12.1436C10.8268 12.162 10.9056 12.1734 10.9844 12.1734C10.9847 12.1734 10.985 12.1734 10.985 12.1734C10.9856 12.1734 10.9859 12.1734 10.9862 12.1734C11.0649 12.1734 11.1437 12.1623 11.2216 12.1436C11.2289 12.1419 11.2362 12.141 11.2435 12.139C11.3144 12.1206 11.3836 12.0926 11.4513 12.0579C11.4641 12.0514 11.477 12.0447 11.4895 12.0377C11.5015 12.031 11.514 12.026 11.5257 12.0188L20.2198 6.42806V15.9261C20.2196 16.4405 19.8008 16.8592 19.2864 16.8592Z" fill="CURRENTCOLOR"/></g><defs><clipPath id="bclip0_129_18"><path fill="currentcolor" transform="translate(0 .167)" d="M0 0H21.97V21.97H0z"/></clipPath></defs></symbol><symbol viewBox="0 0 20 20" fill="none" id="svg-phone"><g clip-path="url(#cclip0_129_14)"><path d="M19.7858 15.1681C19.0413 13.7607 16.456 12.2346 16.3421 12.1679C16.0099 11.9788 15.6633 11.8787 15.3388 11.8787C14.8565 11.8787 14.4616 12.0996 14.2225 12.5015C13.8443 12.9539 13.3753 13.4826 13.2614 13.5645C12.3805 14.1622 11.6909 14.0944 10.9278 13.3313L6.66916 9.07231C5.91094 8.31409 5.84124 7.61593 6.43484 6.7398C6.51789 6.62524 7.0466 6.15584 7.49894 5.77729C7.7874 5.60562 7.98539 5.35053 8.07215 5.03761C8.18746 4.62123 8.10255 4.13145 7.83041 3.65427C7.76627 3.54452 6.23944 0.95878 4.83275 0.214648C4.57024 0.0756094 4.27437 0.00219727 3.97775 0.00219727C3.48908 0.00219727 3.02933 0.192772 2.68377 0.537958L1.74276 1.4786C0.254494 2.96649 -0.284233 4.65312 0.140668 6.49139C0.495123 8.02341 1.52808 9.65368 3.21137 11.3366L8.66353 16.7887C10.794 18.9192 12.825 19.9996 14.7004 19.9996C14.7004 19.9996 14.7004 19.9996 14.7008 19.9996C16.08 19.9996 17.3658 19.4134 18.5215 18.2577L19.4622 17.3171C20.0339 16.7457 20.1637 15.8818 19.7858 15.1681Z" fill="CURRENTCOLOR"/></g><defs><clipPath id="cclip0_129_14"><path fill="currentcolor" d="M0 0H20V20H0z"/></clipPath></defs></symbol><symbol viewBox="0 0 19 19" fill="none" id="svg-world"><g clip-path="url(#dclip0_129_9)"><path d="M9.5 18.7029C14.5766 18.7029 18.7031 14.5763 18.7031 9.49976C18.7031 4.42319 14.5766 0.296631 9.5 0.296631C4.42344 0.296631 0.296875 4.42319 0.296875 9.49976C0.296875 14.5763 4.42344 18.7029 9.5 18.7029ZM2.375 13.1662L6.11563 13.1365C6.53125 14.6357 7.22891 16.0904 8.17891 17.3966C5.64062 16.981 3.51797 15.363 2.375 13.1662ZM7.06563 6.97632H11.7266C12.068 8.60913 12.068 10.2865 11.7563 11.9193L7.06563 11.949C6.72422 10.3013 6.72422 8.60913 7.06563 6.97632ZM9.39609 17.0552C8.46094 15.8529 7.77813 14.5318 7.3625 13.1365L11.4445 13.1068C11.0141 14.5021 10.3313 15.838 9.39609 17.0552ZM10.5836 17.4412C11.5633 16.1052 12.2609 14.6357 12.6766 13.0919L16.6695 13.0623C15.5117 15.3927 13.2555 17.0701 10.5836 17.4412ZM17.5156 9.49976C17.5156 10.331 17.382 11.1326 17.1594 11.8748L12.9586 11.9044C13.2555 10.2716 13.2406 8.60913 12.9289 6.97632H17.1C17.3672 7.76304 17.5156 8.62398 17.5156 9.49976ZM16.5953 5.78882H12.6469C12.2164 4.30444 11.5336 2.8646 10.5836 1.55835C13.2109 1.9146 15.4227 3.53257 16.5953 5.78882ZM11.4148 5.78882H7.37734C7.80781 4.42319 8.47578 3.13179 9.39609 1.94429C10.3164 3.13179 10.9844 4.42319 11.4148 5.78882ZM8.17891 1.60288C7.24375 2.89429 6.56094 4.30444 6.14531 5.78882H2.40469C3.54766 3.60679 5.65547 2.01851 8.17891 1.60288ZM5.86328 6.97632C5.55156 8.62398 5.55156 10.3013 5.84844 11.949L1.88516 11.9787C1.61797 11.1919 1.48438 10.3607 1.48438 9.49976C1.48438 8.62398 1.63281 7.76304 1.9 6.97632H5.86328Z" fill="CURRENTCOLOR"/></g><defs><clipPath id="dclip0_129_9"><path fill="currentcolor" d="M0 0H19V19H0z"/></clipPath></defs></symbol></svg>