<svg width="128" height="128" viewBox="0 0 128 128" fill="none" xmlns="http://www.w3.org/2000/svg">
<path fill-rule="evenodd" clip-rule="evenodd" d="M65.6517 60.8849L114.779 110.012L114.072 110.72L65.6517 62.2991L17.2703 110.681L16.5631 109.973L65.6517 60.8849Z" fill="black"/>
<path fill-rule="evenodd" clip-rule="evenodd" d="M65.6257 40.8799L114.754 90.0084L114.047 90.7155L65.6257 42.2941L17.2443 90.6765L16.5372 89.9694L65.6257 40.8799Z" fill="black"/>
<path fill-rule="evenodd" clip-rule="evenodd" d="M65.9427 75.9909L73.9387 83.9869V97.0547L73.6808 97.1975C73.5389 97.276 73.3585 97.3292 73.184 97.3698C72.9992 97.4127 72.7784 97.4506 72.5313 97.4845C72.0365 97.5524 71.4083 97.608 70.6966 97.6521C69.2716 97.7404 67.4835 97.7844 65.6994 97.7846C63.9152 97.7848 62.1267 97.7412 60.7008 97.6529C59.9887 97.6089 59.3599 97.5533 58.8643 97.4852C58.6169 97.4513 58.3957 97.4133 58.2105 97.3702C58.0355 97.3295 57.8549 97.2762 57.7128 97.1976L57.4488 97.0516L57.7048 84.2288L65.9427 75.9909ZM65.9427 77.4051L58.6966 84.6512L58.4619 96.4019C58.6029 96.4335 58.7829 96.4647 59.0004 96.4945C59.461 96.5578 60.0622 96.6115 60.7626 96.6548C62.1617 96.7414 63.9285 96.7848 65.6993 96.7846C67.47 96.7844 69.2364 96.7407 70.6347 96.654C71.3347 96.6106 71.9354 96.5569 72.3954 96.4938C72.6156 96.4636 72.7972 96.432 72.9387 96.4001V84.4011L65.9427 77.4051Z" fill="black"/>
<path fill-rule="evenodd" clip-rule="evenodd" d="M114.817 54.027V72.727H113.817V54.027H114.817Z" fill="black"/>
<path fill-rule="evenodd" clip-rule="evenodd" d="M114.351 46.3126L125.778 51.3387V56.4878L114.361 51.5536L102.917 56.487V51.129L114.351 46.3126ZM103.917 51.7929V54.967L114.362 50.4644L124.778 54.9662V51.9913L114.342 47.4013L103.917 51.7929Z" fill="black"/>
<path fill-rule="evenodd" clip-rule="evenodd" d="M114.351 39.6122L123.546 44.6457V49.8481L114.344 44.9931L104.997 49.8253V44.5567L114.351 39.6122ZM105.997 45.1592V48.1826L114.349 43.8649L122.546 48.1898V45.2383L114.343 40.7477L105.997 45.1592Z" fill="black"/>
<path fill-rule="evenodd" clip-rule="evenodd" d="M114.35 32.9813L121.343 38.0581V43.338L114.271 38.408L107.168 43.3353V38.0869L114.35 32.9813ZM108.168 38.603V41.4246L114.272 37.1899L120.343 41.4219V38.5678L114.344 34.2126L108.168 38.603Z" fill="black"/>
<path fill-rule="evenodd" clip-rule="evenodd" d="M114.355 26.2886L119.149 31.4393V37.016L114.338 31.8477L109.339 36.9737V31.448L114.355 26.2886ZM110.339 31.854V34.5162L114.355 30.3982L118.149 34.4739V31.8327L114.339 27.7394L110.339 31.854Z" fill="black"/>
<path fill-rule="evenodd" clip-rule="evenodd" d="M17.5797 54.043V72.743H16.5797V54.043H17.5797Z" fill="black"/>
<path fill-rule="evenodd" clip-rule="evenodd" d="M17.114 46.3276L28.5407 51.3547V56.5039L17.1244 51.5686L5.67969 56.5031V51.1451L17.114 46.3276ZM6.67969 51.8089V54.9829L17.125 50.4794L27.5407 54.9821V52.0073L17.1054 47.4163L6.67969 51.8089Z" fill="black"/>
<path fill-rule="evenodd" clip-rule="evenodd" d="M17.1139 39.6282L26.3087 44.6617V49.8631L17.1073 45.0081L7.75969 49.8414V44.5717L17.1139 39.6282ZM8.75969 45.1743V48.1986L17.112 43.8799L25.3087 48.2048V45.2543L17.1055 40.7637L8.75969 45.1743Z" fill="black"/>
<path fill-rule="evenodd" clip-rule="evenodd" d="M17.1128 32.9974L24.1057 38.0731V43.3529L17.0331 38.424L9.93074 43.3503V38.1019L17.1128 32.9974ZM10.9307 38.618V41.4397L17.0344 37.206L23.1057 41.4371V38.5829L17.1067 34.2286L10.9307 38.618Z" fill="black"/>
<path fill-rule="evenodd" clip-rule="evenodd" d="M17.1177 26.3046L21.9107 31.4553V37.0312L17.1012 31.8628L12.1017 36.9887V31.4629L17.1177 26.3046ZM13.1017 31.869V34.5312L17.1182 30.4131L20.9107 34.4887V31.8486L17.1018 27.7554L13.1017 31.869Z" fill="black"/>
<path fill-rule="evenodd" clip-rule="evenodd" d="M89.9777 52.642V65.195H88.9777V52.642H89.9777Z" fill="black"/>
<path fill-rule="evenodd" clip-rule="evenodd" d="M105.167 40.0211V46.7003L89.624 53.5373L74.0727 46.9869V40.0219L89.6394 46.7324L105.167 40.0211ZM75.0727 41.542V46.323L89.6154 52.4486L104.167 46.0477V41.5428L89.6399 47.8216L75.0727 41.542Z" fill="black"/>
<path fill-rule="evenodd" clip-rule="evenodd" d="M102.094 30.7628V37.4993L89.6239 44.3268L76.9367 37.6213V30.7907L89.6173 37.3459L102.094 30.7628ZM101.094 32.4212L89.6221 38.4741L77.9367 32.4333V37.0187L89.6155 43.1913L101.094 36.9067V32.4212Z" fill="black"/>
<path fill-rule="evenodd" clip-rule="evenodd" d="M99.0607 21.5719V28.3839L89.6228 35.2356L79.9257 28.343V21.5745L89.514 28.227L99.0607 21.5719ZM80.9257 23.4855V27.8269L89.6166 34.0044L98.0607 27.8741V23.488L89.5154 29.445L80.9257 23.4855Z" fill="black"/>
<path fill-rule="evenodd" clip-rule="evenodd" d="M96.0407 12.1967V19.3207L89.6276 26.2114L82.9137 19.307V12.2392L89.6112 19.1062L96.0407 12.1967ZM83.9137 14.6967V18.901L89.6117 24.7606L95.0407 18.9273V14.7393L89.6282 20.5558L83.9137 14.6967Z" fill="black"/>
<path fill-rule="evenodd" clip-rule="evenodd" d="M42.0607 52.993V65.595H41.0607V52.993H42.0607Z" fill="black"/>
<path fill-rule="evenodd" clip-rule="evenodd" d="M57.1507 40.4151V47.0932L41.608 53.9313L26.0567 47.3799V40.4159L41.6234 47.1264L57.1507 40.4151ZM27.0567 41.936V46.716L41.5994 52.8426L56.1507 46.4407V41.9368L41.624 48.2156L27.0567 41.936Z" fill="black"/>
<path fill-rule="evenodd" clip-rule="evenodd" d="M54.0777 31.1558V37.8933L41.6079 44.7197L28.9207 38.0142V31.1836L41.6014 37.7399L54.0777 31.1558ZM53.0777 32.8142L41.6061 38.8681L29.9207 32.8264V37.4117L41.5996 43.5842L53.0777 37.3007V32.8142Z" fill="black"/>
<path fill-rule="evenodd" clip-rule="evenodd" d="M51.0447 21.9649V28.7768L41.6068 35.6286L31.9087 28.736V21.9676L41.498 28.6199L51.0447 21.9649ZM32.9087 23.8784V28.2199L41.6006 34.3973L50.0447 28.2671V23.881L41.4994 29.838L32.9087 23.8784Z" fill="black"/>
<path fill-rule="evenodd" clip-rule="evenodd" d="M48.0247 12.5897V19.7136L41.6116 26.6054L34.8977 19.7V12.6322L41.5952 19.4992L48.0247 12.5897ZM35.8977 15.0897V19.294L41.5957 25.1546L47.0247 19.3203V15.1323L41.6122 20.9488L35.8977 15.0897Z" fill="black"/>
<path fill-rule="evenodd" clip-rule="evenodd" d="M7.5467 56.882C7.5467 55.8846 7.57191 54.8922 7.62133 53.9069L8.62007 53.957C8.57149 54.9258 8.5467 55.9014 8.5467 56.882C8.5467 88.4448 34.1338 114.032 65.6967 114.032C97.2596 114.032 122.847 88.4448 122.847 56.882C122.847 55.9014 122.822 54.9258 122.773 53.957L123.772 53.9069C123.821 54.8922 123.847 55.8846 123.847 56.882C123.847 88.9971 97.8118 115.032 65.6967 115.032C33.5816 115.032 7.5467 88.9971 7.5467 56.882Z" fill="black"/>
<path fill-rule="evenodd" clip-rule="evenodd" d="M65.4196 13.269H65.9728L66.1219 13.4846L65.7107 13.769C66.1219 13.4846 66.1219 13.4846 66.1219 13.4846L66.1238 13.4873L66.1275 13.4927L66.1399 13.511C66.1503 13.5266 66.1651 13.5489 66.1838 13.5778C66.2212 13.6356 66.2744 13.7196 66.3399 13.8284C66.4709 14.0461 66.6516 14.3634 66.8554 14.7693C67.2626 15.5805 67.7635 16.7486 68.1424 18.1839C68.772 20.569 69.0659 23.6993 68.0266 27.1476C68.3081 26.9207 68.6251 26.6845 68.9773 26.4492C70.6962 25.3005 73.2588 24.1691 76.6238 24.2371L77.3362 24.2515L77.0804 24.9165L76.6137 24.737C77.0804 24.9165 77.0804 24.9165 77.0804 24.9165L77.0791 24.9198L77.0769 24.9254L77.0696 24.9435C77.0635 24.9586 77.0548 24.9797 77.0434 25.0064C77.0205 25.0598 76.9869 25.1355 76.9415 25.2304C76.8509 25.4201 76.7134 25.687 76.5219 26.0052C76.1394 26.6411 75.5394 27.4858 74.6653 28.3301C72.9994 29.9393 70.3524 31.5315 66.3708 31.6909L67.002 33.0731L65.9712 31.702C65.8853 31.7033 65.7988 31.704 65.7117 31.704H65.6807C65.5936 31.704 65.5071 31.7033 65.4212 31.702L64.3904 33.0731L65.0216 31.6909C61.04 31.5315 58.393 29.9393 56.7271 28.3301C55.853 27.4858 55.253 26.6411 54.8705 26.0052C54.679 25.687 54.5415 25.4201 54.4509 25.2304C54.4055 25.1355 54.3719 25.0598 54.349 25.0064C54.3376 24.9797 54.3289 24.9586 54.3228 24.9435L54.3155 24.9254L54.3133 24.9198L54.3126 24.9179C54.3126 24.9179 54.312 24.9165 54.7787 24.737L54.312 24.9165L54.0562 24.2515L54.7686 24.2371C58.1336 24.1691 60.6962 25.3005 62.4151 26.4492C62.7673 26.6845 63.0843 26.9207 63.3658 27.1476C62.3265 23.6993 62.6204 20.569 63.25 18.1839C63.6289 16.7486 64.1298 15.5805 64.537 14.7693C64.7408 14.3634 64.9215 14.0461 65.0525 13.8284C65.118 13.7196 65.1712 13.6356 65.2086 13.5778C65.2273 13.5489 65.2421 13.5266 65.2526 13.511L65.2649 13.4927L65.2686 13.4873L65.2698 13.4856C65.2698 13.4856 65.2705 13.4846 65.6817 13.769L65.2705 13.4846L65.4196 13.269ZM65.6962 14.7139C65.6156 14.8597 65.526 15.0282 65.4307 15.218C65.048 15.9803 64.5748 17.0834 64.2169 18.4391C63.5017 21.1484 63.249 24.8556 65.0885 28.8833L65.6962 30.2139L66.3039 28.8833C68.1434 24.8556 67.8907 21.1484 67.1755 18.4391C66.8176 17.0834 66.3444 15.9803 65.9617 15.218C65.8664 15.0282 65.7768 14.8597 65.6962 14.7139ZM65.2157 30.6971L64.2346 29.3921L64.2338 29.3912L64.2287 29.3846C64.2237 29.3781 64.2155 29.3675 64.204 29.3532C64.181 29.3245 64.1451 29.2807 64.0965 29.2239C63.9991 29.1102 63.8506 28.9449 63.6516 28.7454C63.2532 28.3461 62.6543 27.8117 61.8595 27.2806C60.4098 26.3118 58.3122 25.3559 55.5851 25.2449C55.6281 25.3216 55.6755 25.4034 55.7274 25.4897C56.0743 26.0664 56.6222 26.8385 57.4218 27.6109C58.9516 29.0886 61.4176 30.5836 65.2157 30.6971ZM66.1767 30.6971L67.1579 29.3921L67.1586 29.3912L67.1637 29.3846C67.1687 29.3781 67.177 29.3675 67.1884 29.3532C67.2114 29.3245 67.2473 29.2807 67.2959 29.2239C67.3933 29.1102 67.5418 28.9449 67.7408 28.7454C68.1392 28.3461 68.7381 27.8117 69.5329 27.2806C70.9826 26.3118 73.0802 25.3559 75.8073 25.2449C75.7643 25.3216 75.7169 25.4034 75.665 25.4897C75.3181 26.0664 74.7702 26.8385 73.9706 27.6109C72.4408 29.0886 69.9748 30.5836 66.1767 30.6971Z" fill="black"/>
<path fill-rule="evenodd" clip-rule="evenodd" d="M96.5707 106.076H34.8227V105.076H96.5707V106.076Z" fill="black"/>
<path fill-rule="evenodd" clip-rule="evenodd" d="M48.1457 112.041V105.576H49.1457V112.041H48.1457Z" fill="black"/>
<path fill-rule="evenodd" clip-rule="evenodd" d="M56.6427 113.743V105.576H57.6427V113.743H56.6427Z" fill="black"/>
<path fill-rule="evenodd" clip-rule="evenodd" d="M65.1387 114.319V105.052H66.1387V114.319H65.1387Z" fill="black"/>
<path fill-rule="evenodd" clip-rule="evenodd" d="M82.4127 111.848V105.383H83.4127V111.848H82.4127Z" fill="black"/>
<path fill-rule="evenodd" clip-rule="evenodd" d="M73.9167 113.743V105.383H74.9167V113.743H73.9167Z" fill="black"/>
</svg>
