<svg width="128" height="128" viewBox="0 0 128 128" fill="none" xmlns="http://www.w3.org/2000/svg">
<path fill-rule="evenodd" clip-rule="evenodd" d="M65.6518 61.2384L114.603 110.189L114.249 110.543L65.6518 61.9455L17.0936 110.504L16.74 110.15L65.6518 61.2384Z" fill="black"/>
<path fill-rule="evenodd" clip-rule="evenodd" d="M65.6258 41.2334L114.578 90.1852L114.224 90.5388L65.6258 41.9406L17.0676 90.4998L16.714 90.1462L65.6258 41.2334Z" fill="black"/>
<path fill-rule="evenodd" clip-rule="evenodd" d="M65.9428 76.3444L73.6888 84.0904V96.9074L73.5599 96.9787C73.4495 97.0398 73.2971 97.0869 73.1276 97.1262C72.953 97.1668 72.7404 97.2035 72.4975 97.2368C72.0114 97.3035 71.39 97.3586 70.6813 97.4026C69.2629 97.4905 67.4803 97.5344 65.6995 97.5346C63.9187 97.5348 62.1356 97.4912 60.7164 97.4034C60.0072 97.3595 59.3853 97.3044 58.8985 97.2376C58.6552 97.2042 58.4422 97.1674 58.2672 97.1267C58.0973 97.0872 57.9446 97.04 57.8339 96.9788L57.7019 96.9058L57.9529 84.3344L65.9428 76.3444ZM65.9428 77.0516L58.4488 84.5456L58.2082 96.5936C58.2548 96.6082 58.3118 96.6237 58.3804 96.6397C58.5351 96.6756 58.7317 96.71 58.9665 96.7422C59.4358 96.8067 60.0439 96.8609 60.7473 96.9044C62.1531 96.9913 63.9253 97.0348 65.6994 97.0346C67.4735 97.0344 69.2453 96.9906 70.6503 96.9035C71.3532 96.86 71.9608 96.8058 72.4295 96.7415C72.664 96.7093 72.8602 96.675 73.0145 96.6392C73.0843 96.623 73.142 96.6072 73.1888 96.5924V84.2976L65.9428 77.0516Z" fill="black"/>
<path fill-rule="evenodd" clip-rule="evenodd" d="M114.567 54.027V72.727H114.067V54.027H114.567Z" fill="black"/>
<path fill-rule="evenodd" clip-rule="evenodd" d="M17.3298 54.043V72.743H16.8298V54.043H17.3298Z" fill="black"/>
<path fill-rule="evenodd" clip-rule="evenodd" d="M89.7278 52.642V65.195H89.2278V52.642H89.7278Z" fill="black"/>
<path fill-rule="evenodd" clip-rule="evenodd" d="M41.8108 52.993V65.595H41.3108V52.993H41.8108Z" fill="black"/>
<path fill-rule="evenodd" clip-rule="evenodd" d="M7.79684 56.882C7.79684 55.8888 7.82195 54.9006 7.87116 53.9195L8.37053 53.9445C8.32174 54.9174 8.29684 55.8972 8.29684 56.882C8.29684 88.5829 33.9959 114.282 65.6968 114.282C97.3978 114.282 123.097 88.5829 123.097 56.882C123.097 55.8972 123.072 54.9174 123.023 53.9445L123.523 53.9195C123.572 54.9006 123.597 55.8888 123.597 56.882C123.597 88.8591 97.6739 114.782 65.6968 114.782C33.7198 114.782 7.79684 88.8591 7.79684 56.882Z" fill="black"/>
<path fill-rule="evenodd" clip-rule="evenodd" d="M65.5508 13.519H65.8419L65.9165 13.6268L65.7109 13.769C65.9165 13.6268 65.9165 13.6268 65.9165 13.6268L65.9179 13.6288L65.921 13.6334L65.9323 13.6502C65.9421 13.6647 65.9562 13.686 65.9742 13.7137C66.0102 13.7693 66.0618 13.851 66.1259 13.9573C66.2539 14.1701 66.4315 14.4818 66.6321 14.8814C67.0332 15.6804 67.5272 16.8323 67.9008 18.2477C68.5732 20.7949 68.8566 24.2002 67.503 27.9325C67.9102 27.5523 68.4486 27.1032 69.1163 26.657C70.8025 25.5302 73.3156 24.4203 76.6189 24.487L76.9751 24.4942L76.8472 24.8268L76.6139 24.737C76.8472 24.8268 76.8472 24.8268 76.8472 24.8268L76.8463 24.829L76.8445 24.8335L76.8381 24.8495C76.8326 24.8632 76.8245 24.8828 76.8137 24.908C76.7921 24.9584 76.7599 25.031 76.7161 25.1226C76.6286 25.3059 76.4948 25.5656 76.3079 25.8763C75.9342 26.4974 75.3473 27.3239 74.4918 28.1503C72.7768 29.8068 69.9908 31.454 65.7119 31.454H65.6809C61.4019 31.454 58.6159 29.8068 56.9009 28.1503C56.0454 27.3239 55.4585 26.4974 55.0849 25.8763C54.898 25.5656 54.7642 25.3059 54.6766 25.1226C54.6328 25.031 54.6006 24.9584 54.579 24.908C54.5682 24.8828 54.5601 24.8632 54.5546 24.8495L54.5482 24.8335L54.5464 24.829L54.5458 24.8276C54.5458 24.8276 54.5455 24.8268 54.7789 24.737L54.5458 24.8276L54.4176 24.4942L54.7738 24.487C58.0771 24.4203 60.5902 25.5302 62.2764 26.657C62.9442 27.1032 63.4826 27.5523 63.8898 27.9325C62.5362 24.2002 62.8195 20.7949 63.4919 18.2477C63.8655 16.8323 64.3595 15.6804 64.7606 14.8814C64.9612 14.4818 65.1388 14.1701 65.2669 13.9573C65.3309 13.851 65.3826 13.7693 65.4186 13.7137C65.4366 13.686 65.4506 13.6647 65.4604 13.6502L65.4717 13.6334L65.4749 13.6288L65.4758 13.6275C65.4758 13.6275 65.4763 13.6268 65.6819 13.769L65.4758 13.6275L65.5508 13.519ZM65.6964 14.2133L65.6952 14.2152C65.5731 14.4181 65.4018 14.7186 65.2074 15.1058C64.8186 15.8803 64.3385 16.9997 63.9753 18.3753C63.2494 21.1255 62.992 24.8943 64.8613 28.9871L65.6964 30.8156L66.5315 28.9871C68.4007 24.8943 68.1434 21.1255 67.4174 18.3753C67.0543 16.9997 66.5741 15.8803 66.1853 15.1058C65.9909 14.7186 65.8196 14.4181 65.6975 14.2152L65.6964 14.2133ZM65.6666 30.8807L64.4342 29.2414L64.4327 29.2394L64.4264 29.2313C64.4206 29.2239 64.4116 29.2123 64.3993 29.1969C64.3746 29.1662 64.337 29.1202 64.2865 29.0612C64.1853 28.9432 64.0326 28.7732 63.8287 28.5688C63.4208 28.1599 62.8093 27.6145 61.9986 27.0727C60.4434 26.0335 58.1574 25.0089 55.1654 24.9846C55.2463 25.1486 55.3609 25.3652 55.5133 25.6186C55.8691 26.2101 56.43 27.0003 57.2483 27.7907C58.8746 29.3616 61.5253 30.9418 65.6332 30.9539L65.6666 30.8807ZM65.671 30.954L65.6964 30.9202L65.7218 30.954C65.7185 30.954 65.7152 30.954 65.7119 30.954H65.6809C65.6776 30.954 65.6743 30.954 65.671 30.954ZM65.7595 30.9539L65.7261 30.8807L66.9586 29.2414L66.96 29.2394L66.9663 29.2313C66.9721 29.2239 66.9811 29.2123 66.9935 29.1969C67.0181 29.1662 67.0557 29.1202 67.1063 29.0612C67.2074 28.9432 67.3601 28.7732 67.564 28.5688C67.9719 28.1599 68.5834 27.6145 69.3941 27.0727C70.9493 26.0335 73.2354 25.0089 76.2273 24.9846C76.1464 25.1486 76.0319 25.3652 75.8794 25.6186C75.5236 26.2101 74.9627 27.0003 74.1444 27.7907C72.5182 29.3616 69.8674 30.9418 65.7595 30.9539Z" fill="black"/>
<path fill-rule="evenodd" clip-rule="evenodd" d="M96.5708 105.826H34.8228V105.326H96.5708V105.826Z" fill="black"/>
<path fill-rule="evenodd" clip-rule="evenodd" d="M48.3958 112.041V105.576H48.8958V112.041H48.3958Z" fill="black"/>
<path fill-rule="evenodd" clip-rule="evenodd" d="M56.8928 113.743V105.576H57.3928V113.743H56.8928Z" fill="black"/>
<path fill-rule="evenodd" clip-rule="evenodd" d="M65.3888 114.319V105.052H65.8888V114.319H65.3888Z" fill="black"/>
<path fill-rule="evenodd" clip-rule="evenodd" d="M82.6628 111.848V105.383H83.1628V111.848H82.6628Z" fill="black"/>
<path fill-rule="evenodd" clip-rule="evenodd" d="M74.1668 113.743V105.383H74.6668V113.743H74.1668Z" fill="black"/>
<path fill-rule="evenodd" clip-rule="evenodd" d="M16.8852 48.7498L28.1022 53.1543L27.9195 53.6197L16.8885 49.2882L6.24408 53.6186L6.05566 53.1554L16.8852 48.7498Z" fill="black"/>
<path fill-rule="evenodd" clip-rule="evenodd" d="M16.7314 43.8008L25.9194 47.4093L25.7367 47.8747L16.7347 44.3392L8.04928 47.8736L7.86082 47.4104L16.7314 43.8008Z" fill="black"/>
<path fill-rule="evenodd" clip-rule="evenodd" d="M16.7693 39.6958L23.8103 42.4603L23.6276 42.9257L16.7726 40.2342L10.1581 42.9246L9.96974 42.4614L16.7693 39.6958Z" fill="black"/>
<path fill-rule="evenodd" clip-rule="evenodd" d="M16.801 34.795L22.0128 39.5157L21.6771 39.8863L16.8069 35.475L12.109 39.8833L11.7669 39.5187L16.801 34.795Z" fill="black"/>
<path fill-rule="evenodd" clip-rule="evenodd" d="M114.231 48.5588L125.448 52.9633L125.266 53.4287L114.235 49.0972L103.59 53.4276L103.402 52.9644L114.231 48.5588Z" fill="black"/>
<path fill-rule="evenodd" clip-rule="evenodd" d="M114.077 43.6097L123.265 47.2183L123.082 47.6837L114.08 44.1482L105.395 47.6825L105.207 47.2194L114.077 43.6097Z" fill="black"/>
<path fill-rule="evenodd" clip-rule="evenodd" d="M114.115 39.5048L121.157 42.2693L120.974 42.7347L114.119 40.0432L107.504 42.7336L107.316 42.2704L114.115 39.5048Z" fill="black"/>
<path fill-rule="evenodd" clip-rule="evenodd" d="M114.147 34.605L119.359 39.3247L119.023 39.6953L114.153 35.285L109.455 39.6924L109.113 39.3277L114.147 34.605Z" fill="black"/>
<path fill-rule="evenodd" clip-rule="evenodd" d="M102.631 47.7147L89.4573 52.8872L76.7388 47.7136L76.9272 47.2504L89.4606 52.3488L102.449 47.2493L102.631 47.7147Z" fill="black"/>
<path fill-rule="evenodd" clip-rule="evenodd" d="M100.064 41.8957L89.2764 46.1312L78.8609 41.8946L79.0492 41.4314L89.2797 45.5928L99.8817 41.4303L100.064 41.8957Z" fill="black"/>
<path fill-rule="evenodd" clip-rule="evenodd" d="M97.5844 37.0667L89.3204 40.3122L81.3418 37.0655L81.5302 36.6024L89.3236 39.7737L97.4016 36.6013L97.5844 37.0667Z" fill="black"/>
<path fill-rule="evenodd" clip-rule="evenodd" d="M89.5641 36.185L83.807 30.9707L83.4713 31.3413L89.5701 36.865L95.4602 31.3383L95.1181 30.9737L89.5641 36.185Z" fill="black"/>
<path fill-rule="evenodd" clip-rule="evenodd" d="M54.7705 47.9747L41.5965 53.1482L28.8779 47.9735L29.0664 47.5104L41.5998 52.6097L54.5878 47.5093L54.7705 47.9747Z" fill="black"/>
<path fill-rule="evenodd" clip-rule="evenodd" d="M52.2036 42.1557L41.4165 46.3912L31.001 42.1546L31.1894 41.6914L41.4198 45.8528L52.0208 41.6903L52.2036 42.1557Z" fill="black"/>
<path fill-rule="evenodd" clip-rule="evenodd" d="M49.7235 37.3277L41.4605 40.5722L33.481 37.3266L33.6694 36.8634L41.4638 40.0338L49.5408 36.8623L49.7235 37.3277Z" fill="black"/>
<path fill-rule="evenodd" clip-rule="evenodd" d="M41.7038 36.445L35.9466 31.2307L35.611 31.6013L41.7098 37.125L47.5998 31.5983L47.2577 31.2337L41.7038 36.445Z" fill="black"/>
<path fill-rule="evenodd" clip-rule="evenodd" d="M65.8919 13.409H65.9919V31.4677L75.1021 25.0581L75.1596 25.1399L65.8919 31.6603V13.409Z" fill="black"/>
<path fill-rule="evenodd" clip-rule="evenodd" d="M65.4031 31.4677V13.409H65.5031V31.6603L56.2354 25.1399L56.2929 25.0581L65.4031 31.4677Z" fill="black"/>
</svg>
