<svg width="319" height="319" viewBox="0 0 319 319" fill="none" xmlns="http://www.w3.org/2000/svg">
<path d="M123.572 307.255C123.824 308.126 123.945 309.113 123.939 310.215C123.933 311.534 123.688 312.772 123.206 313.929C122.724 315.087 122.046 316.049 121.17 316.817C120.295 317.586 119.321 318.066 118.245 318.262C116.661 318.562 115.207 318.381 113.882 317.718C112.912 317.223 112.051 316.406 111.297 315.268C111.109 314.982 111.101 314.673 111.276 314.337C111.443 314.037 111.694 313.888 112.03 313.888C112.296 313.888 112.518 313.993 112.7 314.201C112.741 314.251 112.85 314.399 113.023 314.65C113.505 315.305 114.041 315.794 114.634 316.115C115.569 316.632 116.612 316.778 117.763 316.554C118.871 316.344 119.801 315.8 120.546 314.922C121.07 314.302 121.453 313.61 121.698 312.85C121.941 312.09 122.11 311.214 122.2 310.223H115.619C115.396 310.223 115.203 310.143 115.038 309.982C114.873 309.822 114.793 309.626 114.793 309.397C114.793 309.175 114.875 308.983 115.038 308.823C115.203 308.662 115.394 308.582 115.619 308.582H122.085C121.708 307.096 121.195 305.955 120.546 305.16C120.184 304.727 119.739 304.369 119.211 304.083C118.684 303.796 118.128 303.605 117.543 303.508C116.245 303.306 115.102 303.605 114.111 304.408C113.734 304.709 113.402 305.04 113.116 305.403C112.949 305.605 112.724 305.706 112.446 305.706C112.063 305.706 111.791 305.541 111.631 305.214C111.47 304.892 111.501 304.589 111.725 304.303C112.415 303.411 113.2 302.752 114.08 302.325C114.96 301.901 115.903 301.687 116.917 301.687C118.674 301.687 120.136 302.262 121.3 303.413C122.384 304.462 123.14 305.743 123.572 307.255Z" fill="#129650"/>
<path d="M135.899 303.061L131.536 309.486L135.974 317.063C136.149 317.363 136.149 317.658 135.98 317.953C135.809 318.245 135.549 318.391 135.201 318.391C134.859 318.391 134.604 318.249 134.437 317.963L130.43 311.12L127.96 314.718V317.522C127.96 317.773 127.878 317.981 127.715 318.144C127.55 318.307 127.344 318.389 127.093 318.389C126.848 318.389 126.642 318.303 126.471 318.128C126.3 317.953 126.215 317.745 126.215 317.499V302.569C126.215 302.317 126.3 302.107 126.467 301.94C126.634 301.773 126.84 301.689 127.085 301.689C127.328 301.689 127.536 301.775 127.707 301.951C127.878 302.126 127.962 302.334 127.962 302.579V311.587L134.449 302.076C134.63 301.819 134.871 301.689 135.17 301.689C135.337 301.689 135.504 301.738 135.667 301.835C135.829 301.932 135.941 302.062 135.996 302.222C136.097 302.538 136.066 302.816 135.899 303.061Z" fill="#129650"/>
<path d="M141.486 302.348C142.351 301.909 143.258 301.689 144.207 301.689C145.155 301.689 146.061 301.909 146.922 302.348C147.784 302.787 148.527 303.378 149.151 304.122C149.776 304.865 150.272 305.753 150.643 306.785C151.012 307.817 151.197 308.905 151.197 310.05C151.197 311.216 151.012 312.316 150.643 313.353C150.272 314.389 149.776 315.275 149.151 316.01C148.527 316.745 147.784 317.326 146.922 317.753C146.061 318.179 145.155 318.391 144.207 318.391C143.252 318.391 142.345 318.179 141.486 317.753C140.627 317.328 139.886 316.747 139.257 316.016C138.629 315.283 138.13 314.397 137.762 313.359C137.391 312.321 137.208 311.216 137.208 310.053C137.208 308.909 137.393 307.819 137.762 306.787C138.13 305.755 138.629 304.867 139.253 304.124C139.877 303.38 140.621 302.787 141.486 302.348ZM144.207 316.653C145.149 316.653 146.018 316.366 146.813 315.794C147.608 315.221 148.239 314.428 148.706 313.412C149.174 312.397 149.407 311.276 149.407 310.048C149.407 309.142 149.269 308.281 148.993 307.463C148.717 306.647 148.348 305.945 147.884 305.354C147.421 304.764 146.867 304.295 146.226 303.947C145.583 303.599 144.912 303.423 144.207 303.423C143.266 303.423 142.395 303.716 141.597 304.303C140.798 304.888 140.168 305.692 139.704 306.709C139.241 307.727 139.008 308.839 139.008 310.046C139.008 311.28 139.241 312.405 139.704 313.416C140.168 314.428 140.798 315.219 141.593 315.792C142.386 316.366 143.258 316.653 144.207 316.653Z" fill="#129650"/>
<path d="M169.267 303.605H162.236V317.51C162.236 317.761 162.152 317.969 161.985 318.132C161.818 318.295 161.612 318.377 161.367 318.377C161.116 318.377 160.905 318.295 160.739 318.132C160.572 317.969 160.487 317.761 160.487 317.51V302.725C160.487 302.474 160.572 302.264 160.739 302.097C160.905 301.93 161.116 301.845 161.367 301.845H170.147C170.398 301.845 170.608 301.93 170.775 302.097C170.942 302.264 171.026 302.474 171.026 302.725V317.51C171.026 317.761 170.942 317.969 170.775 318.132C170.608 318.295 170.398 318.377 170.147 318.377C169.895 318.377 169.687 318.295 169.518 318.132C169.351 317.969 169.267 317.761 169.267 317.51V303.605Z" fill="#129650"/>
<path d="M182.515 313.2H176.185L174.667 317.804C174.611 317.979 174.506 318.119 174.354 318.229C174.199 318.336 174.028 318.391 173.841 318.391C173.54 318.391 173.301 318.272 173.124 318.035C172.947 317.798 172.905 317.536 173.004 317.25L177.608 303.24C177.72 302.904 177.849 302.628 177.996 302.408C178.142 302.187 178.298 302.029 178.467 301.932C178.634 301.835 178.787 301.769 178.923 301.738C179.059 301.707 179.207 301.691 179.368 301.691C179.745 301.691 180.08 301.796 180.377 302.004C180.674 302.214 180.923 302.628 181.125 303.248L185.719 317.248C185.809 317.534 185.768 317.796 185.593 318.033C185.418 318.27 185.181 318.389 184.88 318.389H184.849C184.662 318.389 184.489 318.336 184.332 318.227C184.176 318.117 184.068 317.977 184.013 317.802L182.515 313.2ZM181.971 311.556L179.355 303.625L176.729 311.556H181.971Z" fill="#129650"/>
<path d="M193.95 302.348C194.865 302.717 195.561 303.36 196.043 304.274C196.525 305.189 196.702 306.217 196.577 307.36C196.492 308.12 196.241 308.816 195.823 309.447C195.404 310.079 194.846 310.561 194.148 310.897C193.373 311.266 192.481 311.451 191.47 311.451H189.441V317.52C189.441 317.771 189.358 317.979 189.196 318.142C189.031 318.305 188.825 318.387 188.573 318.387C188.322 318.387 188.112 318.305 187.945 318.142C187.778 317.979 187.694 317.771 187.694 317.52V302.735C187.694 302.484 187.778 302.274 187.945 302.107C188.112 301.94 188.322 301.856 188.573 301.856H191.336C192.277 301.856 193.149 302.021 193.95 302.348ZM194.683 307.863C194.885 307.103 194.896 306.342 194.714 305.582C194.624 305.22 194.463 304.907 194.232 304.641C194.002 304.375 193.723 304.171 193.396 304.029C193.068 303.887 192.731 303.782 192.38 303.716C192.032 303.65 191.661 303.617 191.272 303.617H189.441V309.811H191.272C192.018 309.811 192.671 309.692 193.229 309.455C194.004 309.125 194.488 308.596 194.683 307.863Z" fill="#129650"/>
<path d="M208.485 303.061L204.122 309.486L208.559 317.063C208.735 317.363 208.735 317.658 208.566 317.953C208.395 318.245 208.135 318.391 207.787 318.391C207.445 318.391 207.19 318.249 207.023 317.963L203.016 311.12L200.546 314.718V317.522C200.546 317.773 200.464 317.981 200.301 318.144C200.136 318.307 199.93 318.389 199.679 318.389C199.434 318.389 199.228 318.303 199.057 318.128C198.886 317.953 198.801 317.745 198.801 317.499V302.569C198.801 302.317 198.886 302.107 199.053 301.94C199.219 301.773 199.425 301.689 199.671 301.689C199.914 301.689 200.122 301.775 200.293 301.951C200.464 302.126 200.548 302.334 200.548 302.579V311.587L207.035 302.076C207.216 301.819 207.457 301.689 207.756 301.689C207.923 301.689 208.09 301.738 208.253 301.835C208.417 301.932 208.527 302.062 208.582 302.222C208.683 302.538 208.652 302.816 208.485 303.061Z" fill="#129650"/>
<path d="M75.9987 266.016C77.4262 261.377 79.7952 257.879 83.1015 255.518C85.3325 253.93 87.9734 253.135 91.0222 253.135C92.868 253.135 94.6499 253.468 96.3679 254.134C98.086 254.799 99.6021 255.743 100.918 256.962C101.722 257.7 102.443 258.511 103.086 259.393C103.407 259.842 103.539 260.341 103.483 260.886C103.428 261.432 103.191 261.865 102.772 262.186C102.323 262.524 101.813 262.648 101.244 262.559C100.673 262.471 100.212 262.211 99.8596 261.776C97.5648 258.903 94.7158 257.395 91.3127 257.251C88.3422 257.154 85.8949 258.101 83.9688 260.091C81.9788 262.131 80.6295 264.458 79.923 267.073C79.136 269.994 78.9754 272.851 79.4409 275.644C79.9065 278.438 80.9344 280.901 82.5227 283.036C83.7422 284.673 85.279 285.872 87.133 286.634C88.987 287.397 90.9295 287.617 92.9586 287.296C94.9898 286.974 96.8067 286.115 98.4115 284.719C99.0851 284.125 99.7587 283.305 100.434 282.263C100.916 281.526 101.518 281.155 102.241 281.155C102.787 281.155 103.244 281.332 103.613 281.684C104.4 282.422 104.503 283.272 103.926 284.237C102.321 286.789 100.371 288.682 98.0757 289.918C95.3791 291.331 92.5528 291.828 89.6008 291.412C87.4008 291.107 85.3675 290.404 83.4971 289.304C81.6266 288.204 80.0424 286.731 78.7426 284.885C76.9277 282.333 75.7762 279.328 75.288 275.869C74.7977 272.416 75.0346 269.131 75.9987 266.016Z" fill="#129650"/>
<path d="M117.724 254.651C119.714 253.639 121.801 253.135 123.985 253.135C126.168 253.135 128.251 253.639 130.233 254.651C132.214 255.662 133.924 257.022 135.362 258.732C136.798 260.441 137.941 262.485 138.794 264.86C139.645 267.235 140.069 269.74 140.069 272.373C140.069 275.053 139.643 277.585 138.794 279.97C137.943 282.354 136.8 284.393 135.362 286.086C133.926 287.78 132.216 289.117 130.233 290.095C128.251 291.074 126.168 291.564 123.985 291.564C121.785 291.564 119.7 291.074 117.724 290.095C115.751 289.117 114.041 287.784 112.595 286.099C111.149 284.414 110.003 282.374 109.153 279.983C108.302 277.591 107.877 275.055 107.877 272.375C107.877 269.742 108.302 267.239 109.153 264.862C110.003 262.487 111.147 260.444 112.585 258.734C114.02 257.022 115.732 255.662 117.724 254.651ZM123.985 287.566C126.152 287.566 128.15 286.908 129.979 285.592C131.808 284.276 133.261 282.451 134.338 280.114C135.413 277.778 135.951 275.199 135.951 272.373C135.951 270.286 135.634 268.304 134.999 266.426C134.365 264.547 133.514 262.93 132.447 261.574C131.38 260.219 130.107 259.14 128.63 258.336C127.153 257.533 125.604 257.133 123.983 257.133C121.815 257.133 119.813 257.807 117.976 259.156C116.138 260.503 114.686 262.351 113.617 264.693C112.55 267.038 112.016 269.598 112.016 272.375C112.016 275.216 112.55 277.801 113.617 280.127C114.684 282.455 116.132 284.276 117.963 285.592C119.795 286.906 121.801 287.566 123.985 287.566Z" fill="#129650"/>
<path d="M145.291 266.016C146.718 261.377 149.087 257.879 152.394 255.518C154.625 253.93 157.266 253.135 160.314 253.135C162.16 253.135 163.942 253.468 165.66 254.134C167.378 254.799 168.894 255.743 170.211 256.962C171.014 257.7 171.735 258.511 172.378 259.393C172.699 259.842 172.831 260.341 172.775 260.886C172.72 261.432 172.483 261.865 172.065 262.186C171.615 262.524 171.105 262.648 170.536 262.559C169.965 262.471 169.504 262.211 169.152 261.776C166.857 258.903 164.008 257.395 160.605 257.251C157.634 257.154 155.187 258.101 153.261 260.091C151.271 262.131 149.922 264.458 149.215 267.073C148.428 269.994 148.267 272.851 148.733 275.644C149.199 278.438 150.226 280.901 151.815 283.036C153.034 284.673 154.571 285.872 156.425 286.634C158.279 287.397 160.222 287.617 162.251 287.296C164.282 286.974 166.099 286.115 167.704 284.719C168.377 284.125 169.051 283.305 169.726 282.263C170.208 281.526 170.81 281.155 171.533 281.155C172.079 281.155 172.536 281.332 172.905 281.684C173.692 282.422 173.795 283.272 173.218 284.237C171.613 286.789 169.663 288.682 167.368 289.918C164.671 291.331 161.845 291.828 158.893 291.412C156.693 291.107 154.66 290.404 152.789 289.304C150.919 288.204 149.335 286.731 148.035 284.885C146.22 282.333 145.068 279.328 144.58 275.869C144.092 272.416 144.329 269.131 145.291 266.016Z" fill="#129650"/>
<path d="M199.586 253.724C199.971 253.347 200.453 253.157 201.03 253.157C201.609 253.157 202.089 253.347 202.474 253.724C202.86 254.101 203.053 254.579 203.053 255.156V289.562C203.053 290.14 202.86 290.616 202.474 290.995C202.089 291.372 201.607 291.562 201.03 291.562C200.453 291.562 199.971 291.372 199.586 290.995C199.201 290.618 199.009 290.14 199.009 289.562V272.828H182.878V289.562C182.878 290.14 182.688 290.616 182.311 290.995C181.934 291.372 181.456 291.562 180.877 291.562C180.3 291.562 179.818 291.372 179.433 290.995C179.048 290.618 178.856 290.14 178.856 289.562V255.156C178.856 254.579 179.048 254.101 179.433 253.724C179.818 253.347 180.3 253.157 180.877 253.157C181.456 253.157 181.932 253.347 182.311 253.724C182.688 254.101 182.878 254.579 182.878 255.156V269.023H199.009V255.156C199.007 254.579 199.201 254.101 199.586 253.724Z" fill="#129650"/>
<path d="M224.409 269.915C226.158 270.605 227.551 271.71 228.587 273.226C229.623 274.742 230.252 276.577 230.476 278.728C230.604 280.092 230.524 281.577 230.235 283.182C229.947 284.787 229.38 286.191 228.538 287.395C227.695 288.598 226.64 289.506 225.371 290.116C224.537 290.534 223.691 290.818 222.832 290.971C221.972 291.123 220.837 291.199 219.424 291.199H211.792C211.23 291.199 210.756 291.008 210.371 290.623C209.985 290.237 209.794 289.755 209.794 289.178L209.769 255.182C209.769 254.605 209.965 254.123 210.358 253.738C210.752 253.353 211.23 253.159 211.792 253.159C212.369 253.159 212.851 253.353 213.236 253.738C213.621 254.123 213.813 254.605 213.813 255.182V269.05H219.231C221.223 269.048 222.949 269.339 224.409 269.915ZM222.531 286.89C225.485 285.975 226.752 283.126 226.336 278.343C226.158 277.059 225.722 275.968 225.023 275.067C224.325 274.169 223.414 273.543 222.29 273.189C221.552 272.964 220.693 272.851 219.713 272.851H213.813V287.176H220.145C221.142 287.18 221.937 287.083 222.531 286.89ZM235.22 253.736C235.606 253.351 236.088 253.157 236.664 253.157C237.241 253.157 237.723 253.351 238.108 253.736C238.494 254.121 238.685 254.603 238.685 255.18V289.586C238.685 290.149 238.494 290.618 238.108 290.995C237.723 291.372 237.241 291.562 236.664 291.562C236.086 291.562 235.606 291.372 235.22 290.995C234.835 290.618 234.641 290.149 234.641 289.586V255.18C234.641 254.603 234.835 254.121 235.22 253.736Z" fill="#129650"/>
<path fill-rule="evenodd" clip-rule="evenodd" d="M159.585 124.336L262.973 227.724L257.146 233.551L159.585 135.99L62.1042 233.47L56.2776 227.644L159.585 124.336Z" fill="#129650"/>
<path fill-rule="evenodd" clip-rule="evenodd" d="M159.531 83.1261L262.921 186.516L257.095 192.342L159.531 94.7792L62.0505 192.262L56.2239 186.436L159.531 83.1261Z" fill="#129650"/>
<path fill-rule="evenodd" clip-rule="evenodd" d="M160.185 155.455L179.747 175.017V205.038L177.622 206.214C176.939 206.591 176.222 206.777 175.801 206.875C175.295 206.993 174.738 207.086 174.177 207.163C173.05 207.318 171.671 207.438 170.169 207.531C167.151 207.718 163.401 207.809 159.684 207.81C155.967 207.81 152.216 207.719 149.196 207.533C147.692 207.44 146.312 207.319 145.183 207.164C144.621 207.087 144.064 206.994 143.557 206.876C143.134 206.777 142.418 206.591 141.736 206.215L139.561 205.012L140.15 175.489L160.185 155.455ZM148.322 178.97L147.919 199.177C148.456 199.224 149.053 199.268 149.704 199.308C152.504 199.482 156.077 199.57 159.683 199.57C163.289 199.569 166.861 199.48 169.659 199.307C170.336 199.265 170.954 199.219 171.507 199.169V178.43L160.185 167.108L148.322 178.97ZM174.052 198.819C174.052 198.819 174.042 198.822 174.021 198.828C174.04 198.821 174.051 198.818 174.052 198.819ZM145.307 198.82C145.308 198.819 145.318 198.822 145.337 198.829C145.316 198.823 145.307 198.82 145.307 198.82Z" fill="#129650"/>
<path fill-rule="evenodd" clip-rule="evenodd" d="M263.955 114.579V153.101H255.715V114.579H263.955Z" fill="#129650"/>
<path d="M237.381 109.293V118.081L259.928 108.362L282.415 118.081V109.713L259.897 99.8089L237.381 109.293Z" fill="#129650"/>
<path fill-rule="evenodd" clip-rule="evenodd" d="M259.898 99.6967L282.518 109.646V118.238L259.927 108.474L237.278 118.238V109.225L259.898 99.6967ZM237.484 109.361V117.924L259.928 108.25L282.312 117.924V109.781L259.896 99.921L237.484 109.361Z" fill="#129650"/>
<path d="M241.666 95.6909V104.232L259.897 94.8072L277.816 104.263V95.864L259.897 86.0542L241.666 95.6909Z" fill="#129650"/>
<path fill-rule="evenodd" clip-rule="evenodd" d="M259.897 85.9373L277.919 95.8029V104.433L259.896 94.9234L241.563 104.401V95.6289L259.897 85.9373ZM241.769 95.753V104.062L259.897 94.691L277.713 104.092V95.925L259.896 86.1712L241.769 95.753Z" fill="#129650"/>
<path d="M246.138 82.2741V90.5862L259.742 81.1494L273.279 90.5862V82.2082L259.897 72.4933L246.138 82.2741Z" fill="#129650"/>
<path fill-rule="evenodd" clip-rule="evenodd" d="M259.898 72.3664L273.382 82.1557V90.7836L259.742 81.2748L246.035 90.783V82.221L259.898 72.3664ZM246.241 82.3273V90.3894L259.743 81.0239L273.176 90.3889V82.2607L259.896 72.6201L246.241 82.3273Z" fill="#129650"/>
<path d="M250.61 68.4845V76.9181L259.897 67.3968L268.759 76.9181V68.4536L259.897 58.9323L250.61 68.4845Z" fill="#129650"/>
<path fill-rule="evenodd" clip-rule="evenodd" d="M259.898 58.7828L268.862 68.4131V77.18L259.895 67.5461L250.507 77.1713V68.4427L259.898 58.7828ZM250.713 68.5263V76.665L259.899 67.2475L268.656 76.6563V68.4941L259.895 59.0817L250.713 68.5263Z" fill="#129650"/>
<path fill-rule="evenodd" clip-rule="evenodd" d="M63.6469 114.612V153.134H55.4069V114.612H63.6469Z" fill="#129650"/>
<path d="M37.0728 109.326V118.114L59.6195 108.393L82.1064 118.114V109.746L59.5886 99.8398L37.0728 109.326Z" fill="#129650"/>
<path fill-rule="evenodd" clip-rule="evenodd" d="M59.5894 99.7276L82.2094 109.679V118.271L59.6194 108.505L36.9698 118.271V109.258L59.5894 99.7276ZM37.1758 109.394V117.957L59.6195 108.281L82.0034 117.957V109.813L59.5877 99.9519L37.1758 109.394Z" fill="#129650"/>
<path d="M41.3574 95.7218V104.265L59.5884 94.8381L77.5084 104.293V95.8969L59.5884 86.0872L41.3574 95.7218Z" fill="#129650"/>
<path fill-rule="evenodd" clip-rule="evenodd" d="M59.5893 85.9703L77.6114 95.8359V104.464L59.5879 94.9543L41.2544 104.434V95.6597L59.5893 85.9703ZM41.4604 95.7839V104.095L59.5889 94.7219L77.4054 104.123V95.958L59.5876 86.2042L41.4604 95.7839Z" fill="#129650"/>
<path d="M45.8296 82.305V90.6171L59.4318 81.1823L72.9701 90.6171V82.2391L59.5883 72.5262L45.8296 82.305Z" fill="#129650"/>
<path fill-rule="evenodd" clip-rule="evenodd" d="M59.589 72.3994L73.0731 82.1866V90.8145L59.4316 81.3078L45.7266 90.8139V82.2519L59.589 72.3994ZM45.9326 82.3582V90.4203L59.4319 81.0569L72.8671 90.4198V82.2916L59.5877 72.653L45.9326 82.3582Z" fill="#129650"/>
<path d="M50.3022 68.5154V76.949L59.5887 67.4277L68.4488 76.949V68.4866L59.5887 58.9652L50.3022 68.5154Z" fill="#129650"/>
<path fill-rule="evenodd" clip-rule="evenodd" d="M59.5904 58.8158L68.5518 68.4461V77.2109L59.587 67.577L50.1992 77.2022V68.4736L59.5904 58.8158ZM50.4052 68.5572V76.6959L59.5905 67.2784L68.3458 76.6872V68.5271L59.5871 59.1147L50.4052 68.5572Z" fill="#129650"/>
<path fill-rule="evenodd" clip-rule="evenodd" d="M212.787 105.981V137.585H204.547V105.981H212.787Z" fill="#129650"/>
<path d="M177.962 99.3927V87.2944L209 100.674L239.956 87.2944V98.8139L208.959 112.449L177.962 99.3927Z" fill="#129650"/>
<path fill-rule="evenodd" clip-rule="evenodd" d="M240.059 87.1376V98.8811L208.96 112.561L177.859 99.4611V87.1378L209 100.562L240.059 87.1376ZM178.065 87.4509V99.3244L208.958 112.337L239.853 98.7467V87.4511L209 100.786L178.065 87.4509Z" fill="#129650"/>
<path d="M183.862 80.1626V68.4042L208.959 81.378L233.626 68.363V79.9216L208.959 93.427L183.862 80.1626Z" fill="#129650"/>
<path fill-rule="evenodd" clip-rule="evenodd" d="M233.729 68.1922V79.9827L208.96 93.5439L183.759 80.2247V68.235L208.959 81.2618L233.729 68.1922ZM233.523 68.5338L208.96 81.4942L183.965 68.5734V80.1006L208.958 93.31L233.523 79.8606V68.5338Z" fill="#129650"/>
<path d="M190.02 61.1385V49.6952L208.743 62.6856L227.378 49.6952V61.2292L208.959 74.6006L190.02 61.1385Z" fill="#129650"/>
<path fill-rule="evenodd" clip-rule="evenodd" d="M227.481 49.4979V61.2817L208.96 74.7275L189.917 61.1917V49.4984L208.743 62.5601L227.481 49.4979ZM190.123 49.8921V61.0854L208.959 74.4738L227.275 61.1767V49.8926L208.743 62.811L190.123 49.8921Z" fill="#129650"/>
<path d="M196.175 42.6377V31.0275L208.959 44.1353L221.156 31.0275V42.6789L208.959 55.7846L196.175 42.6377Z" fill="#129650"/>
<path fill-rule="evenodd" clip-rule="evenodd" d="M221.259 30.7656V42.7194L208.961 55.934L196.072 42.6795V30.7744L208.957 43.986L221.259 30.7656ZM196.278 31.2806V42.5959L208.958 55.6352L221.053 42.6384V31.2894L208.961 44.2846L196.278 31.2806Z" fill="#129650"/>
<path fill-rule="evenodd" clip-rule="evenodd" d="M114.078 108.438V138.409H105.838V108.438H114.078Z" fill="#129650"/>
<path d="M79.0493 100.202V88.106L110.087 101.486L141.043 88.106V99.6235L110.046 113.261L79.0493 100.202Z" fill="#129650"/>
<path fill-rule="evenodd" clip-rule="evenodd" d="M141.146 87.9493V99.6907L110.047 113.373L78.9463 100.271V87.9494L110.087 101.374L141.146 87.9493ZM79.1523 88.2626V100.134L110.045 113.149L140.94 99.5562V88.2627L110.087 101.598L79.1523 88.2626Z" fill="#129650"/>
<path d="M84.9492 80.9722V69.2137L110.046 82.1897L134.713 69.1725V80.7333L110.046 94.2366L84.9492 80.9722Z" fill="#129650"/>
<path fill-rule="evenodd" clip-rule="evenodd" d="M134.816 69.0017V80.7943L110.047 94.3535L84.8462 81.0343V69.0445L110.046 82.0735L134.816 69.0017ZM134.61 69.3434L110.047 82.3059L85.0522 69.3829V80.9102L110.045 94.1196L134.61 80.6722V69.3434Z" fill="#129650"/>
<path d="M91.1045 61.9481V50.5048L109.83 63.4952L128.465 50.5048V62.0388L110.046 75.4102L91.1045 61.9481Z" fill="#129650"/>
<path fill-rule="evenodd" clip-rule="evenodd" d="M128.568 50.3075V62.0913L110.047 75.537L91.0015 62.0013V50.308L109.83 63.3697L128.568 50.3075ZM91.2075 50.7016V61.895L110.046 75.2834L128.362 61.9862V50.7022L109.83 63.6206L91.2075 50.7016Z" fill="#129650"/>
<path d="M97.2617 43.4473V31.8371L110.046 44.9449L122.243 31.8371V43.4885L110.046 56.5962L97.2617 43.4473Z" fill="#129650"/>
<path fill-rule="evenodd" clip-rule="evenodd" d="M122.346 31.5752V43.529L110.048 56.7457L97.1587 43.4891V31.584L110.044 44.7956L122.346 31.5752ZM97.3647 32.0902V43.4054L110.044 56.4468L122.14 43.4479V32.099L110.048 45.0942L97.3647 32.0902Z" fill="#129650"/>
<path fill-rule="evenodd" clip-rule="evenodd" d="M36.7988 120.46C36.7988 118.354 36.8521 116.258 36.9564 114.177L45.1861 114.59C45.0886 116.534 45.0388 118.492 45.0388 120.46C45.0388 183.773 96.3649 235.099 159.678 235.099C222.991 235.099 274.317 183.773 274.317 120.46C274.317 118.492 274.267 116.534 274.17 114.59L282.399 114.177C282.504 116.258 282.557 118.354 282.557 120.46C282.557 188.324 227.542 243.339 159.678 243.339C91.8141 243.339 36.7988 188.324 36.7988 120.46Z" fill="#129650"/>
<path d="M159.709 67.5637C177.041 67.5637 182.167 54.2417 182.167 54.2417C168.812 53.9718 161.865 63.2109 161.865 63.2109C169.689 46.0799 159.706 31.6476 159.706 31.6476H159.647C159.647 31.6476 149.664 46.0799 157.488 63.2109C157.488 63.2109 150.542 53.9718 137.187 54.2417C137.187 54.2417 142.312 67.5637 159.645 67.5637H159.709Z" fill="#129650"/>
<path fill-rule="evenodd" clip-rule="evenodd" d="M159.593 31.5446H159.76L159.791 31.589L159.706 31.6476C159.791 31.589 159.791 31.5888 159.791 31.589L159.793 31.5919L159.799 31.6001L159.82 31.6322C159.839 31.6604 159.867 31.7024 159.903 31.7578C159.975 31.8686 160.079 32.033 160.208 32.2481C160.467 32.6782 160.828 33.3112 161.236 34.1241C162.052 35.7498 163.058 38.0959 163.819 40.9788C165.302 46.5936 165.854 54.2469 162.259 62.5779C162.467 62.3421 162.743 62.0429 163.086 61.6988C163.95 60.8329 165.241 59.6819 166.951 58.5394C170.37 56.2544 175.466 54.0032 182.169 54.1387L182.315 54.1416L182.263 54.2786L182.167 54.2417C182.263 54.2786 182.263 54.2785 182.263 54.2786L182.262 54.2815L182.259 54.2892L182.247 54.3186C182.236 54.3444 182.221 54.3824 182.2 54.4318C182.157 54.5306 182.093 54.675 182.005 54.8585C181.83 55.2254 181.561 55.7487 181.183 56.3763C180.428 57.6314 179.241 59.3041 177.509 60.9768C174.044 64.3237 168.405 67.6667 159.709 67.6667H159.645C150.949 67.6667 145.309 64.3237 141.844 60.9768C140.113 59.3041 138.925 57.6314 138.17 56.3763C137.792 55.7487 137.523 55.2254 137.348 54.8585C137.26 54.675 137.196 54.5306 137.154 54.4318C137.132 54.3824 137.117 54.3444 137.106 54.3186L137.095 54.2892L137.091 54.2815L137.091 54.2795C137.091 54.2793 137.09 54.2786 137.187 54.2417L137.091 54.2795L137.038 54.1416L137.184 54.1387C143.887 54.0032 148.983 56.2544 152.403 58.5394C154.112 59.6819 155.403 60.8329 156.267 61.6988C156.61 62.0429 156.886 62.3421 157.094 62.5779C153.499 54.2469 154.052 46.5936 155.534 40.9788C156.295 38.0959 157.301 35.7498 158.117 34.1241C158.525 33.3112 158.886 32.6782 159.145 32.2481C159.274 32.033 159.378 31.8686 159.45 31.7578C159.486 31.7024 159.514 31.6604 159.533 31.6322L159.554 31.6001L159.56 31.5919L159.561 31.5898C159.562 31.5897 159.562 31.589 159.647 31.6476L159.561 31.5898L159.593 31.5446ZM159.677 31.7879C159.662 31.8106 159.644 31.8379 159.623 31.8699C159.552 31.9788 159.45 32.1413 159.321 32.3543C159.065 32.7804 158.707 33.4087 158.301 34.2165C157.49 35.8322 156.49 38.1649 155.733 41.0314C154.22 46.7641 153.682 54.6295 157.582 63.1681L157.976 64.0312L157.405 63.2728L157.404 63.2714L157.401 63.2667L157.386 63.2475C157.373 63.2305 157.353 63.205 157.326 63.1716C157.273 63.1048 157.192 63.0066 157.085 62.8815C156.871 62.6312 156.549 62.2732 156.121 61.8443C155.265 60.9862 153.984 59.8444 152.288 58.7107C148.921 56.4609 143.917 54.244 137.339 54.342C137.34 54.3449 137.342 54.3478 137.343 54.3507C137.384 54.4471 137.447 54.5889 137.534 54.7697C137.706 55.1313 137.973 55.6488 138.346 56.2701C139.094 57.513 140.271 59.1707 141.987 60.8286C145.418 64.1427 151.008 67.4607 159.645 67.4607H159.709C168.345 67.4607 173.935 64.1427 177.366 60.8286C179.082 59.1707 180.259 57.513 181.007 56.2701C181.381 55.6488 181.647 55.1313 181.82 54.7697C181.906 54.5889 181.969 54.4471 182.01 54.3507C182.011 54.3478 182.013 54.3449 182.014 54.342C175.436 54.244 170.432 56.4609 167.065 58.7107C165.369 59.8444 164.088 60.9862 163.232 61.8443C162.804 62.2732 162.483 62.6312 162.268 62.8815C162.161 63.0066 162.08 63.1048 162.027 63.1716C162 63.205 161.98 63.2305 161.967 63.2475L161.952 63.2667L161.949 63.2714L161.948 63.2725L161.377 64.0312L161.772 63.1681C165.671 54.6295 165.134 46.7641 163.62 41.0314C162.864 38.1649 161.863 35.8322 161.052 34.2165C160.646 33.4087 160.288 32.7804 160.032 32.3543C159.904 32.1413 159.801 31.9788 159.73 31.8699C159.71 31.8379 159.692 31.8106 159.677 31.7879Z" fill="#129650"/>
<path fill-rule="evenodd" clip-rule="evenodd" d="M225.108 222.83H94.0112V218.71H225.108V222.83Z" fill="#129650"/>
<path fill-rule="evenodd" clip-rule="evenodd" d="M122.493 234.088V220.77H126.613V234.088H122.493Z" fill="#129650"/>
<path fill-rule="evenodd" clip-rule="evenodd" d="M139.997 234.883V220.77H144.117V234.883H139.997Z" fill="#129650"/>
<path fill-rule="evenodd" clip-rule="evenodd" d="M157.498 237.594V219.691H161.618V237.594H157.498Z" fill="#129650"/>
<path fill-rule="evenodd" clip-rule="evenodd" d="M193.083 233.69V220.372H197.203V233.69H193.083Z" fill="#129650"/>
<path fill-rule="evenodd" clip-rule="evenodd" d="M175.581 234.485V220.372H179.701V234.485H175.581Z" fill="#129650"/>
</svg>
