<svg width="48" height="70" viewBox="0 0 48 70" fill="none" xmlns="http://www.w3.org/2000/svg">
<path d="M16.7085 35.2917L22.8335 23.3333H16.7085L31.7293 9.04167L25.1668 20.4167H31.2918L16.7085 35.2917Z" fill="#1288E3"/>
<path d="M47.3334 23.3333C47.3334 10.5 36.8334 0 24.0001 0C11.1667 0 0.666748 10.5 0.666748 23.3333C0.666748 32.2292 5.77092 40.3958 13.7917 44.3333V52.5C12.1876 52.5 10.8751 53.8125 10.8751 55.4167V58.3333C10.8751 59.9375 12.1876 61.25 13.7917 61.25H15.2501V62.7083C15.2501 64.3125 16.5626 65.625 18.1667 65.625H19.6251V67.0833C19.6251 68.6875 20.9376 70 22.5417 70H25.4584C27.0626 70 28.3751 68.6875 28.3751 67.0833V65.625H29.8334C31.4376 65.625 32.7501 64.3125 32.7501 62.7083V61.25H34.2084C35.8126 61.25 37.1251 59.9375 37.1251 58.3333V55.4167C37.1251 53.8125 35.8126 52.5 34.2084 52.5V44.3333C42.2292 40.3958 47.3334 32.2292 47.3334 23.3333ZM25.4584 67.0833H22.5417V65.625H25.4584V67.0833ZM29.8334 62.7083H18.1667V61.25H29.8334V62.7083ZM34.2084 58.3333H13.7917V55.4167H34.2084V58.3333ZM32.1667 42L31.2917 42.4375V52.5H25.4584V43.75H22.5417V52.5H16.7084V42.4375L15.8334 42C8.39591 38.7917 3.58341 31.5 3.58341 23.3333C3.58341 12.1042 12.7709 2.91667 24.0001 2.91667C35.2292 2.91667 44.4167 12.1042 44.4167 23.3333C44.4167 31.5 39.6042 38.7917 32.1667 42Z" fill="#323232"/>
</svg>
