<svg width="87" height="59" viewBox="0 0 87 59" fill="none" xmlns="http://www.w3.org/2000/svg">
<g clip-path="url(#clip0_129_180)">
<path fill-rule="evenodd" clip-rule="evenodd" d="M67.6648 0H55.3195L61.4928 10.7861H61.4921L48.5737 33.3571L54.747 44.1425H68.2381L74.4107 33.3571H60.9197L67.6648 21.5708L67.9518 22.0717L74.4107 33.3571L80.5834 44.1425L86.7561 33.3571L73.8374 10.7854L73.8394 10.7828H73.8361L67.6648 0Z" fill="#1288E3"/>
<path fill-rule="evenodd" clip-rule="evenodd" d="M60.92 33.3571L60.7437 44.1425H68.2384L74.411 33.3571H60.92Z" fill="url(#paint0_linear_129_180)"/>
<path fill-rule="evenodd" clip-rule="evenodd" d="M67.6651 21.5708L61.4931 10.7861L48.5747 33.3571H60.92L67.6651 21.5708Z" fill="url(#paint1_linear_129_180)"/>
<path fill-rule="evenodd" clip-rule="evenodd" d="M67.6651 21.5708L61.4931 10.7861L48.5747 33.3571H60.92L67.6651 21.5708Z" fill="url(#paint2_linear_129_180)"/>
<path fill-rule="evenodd" clip-rule="evenodd" d="M0.00878906 44.1431L25.2727 44.1425L50.5365 44.1431L37.9048 22.0717L25.2727 0L12.6411 22.0717L0.00878906 44.1431ZM18.5274 33.3571H25.2734H32.0185L28.6455 27.4643L25.2734 21.5714L21.9004 27.4643L18.5274 33.3571Z" fill="#1288E3"/>
<path fill-rule="evenodd" clip-rule="evenodd" d="M31.3844 33.3571L25.6345 44.1425H12.5508L18.527 33.3571H31.3844Z" fill="url(#paint3_linear_129_180)"/>
<path fill-rule="evenodd" clip-rule="evenodd" d="M37.6176 21.5701L25.2729 21.5714L32.018 33.3571L44.3601 33.3512L37.6176 21.5701Z" fill="url(#paint4_linear_129_180)"/>
<path fill-rule="evenodd" clip-rule="evenodd" d="M18.8933 32.7179L12.4636 22.3807L18.9518 11.0434L25.2729 21.5715L18.8933 32.7179Z" fill="url(#paint5_linear_129_180)"/>
<path d="M28.9868 54.452C28.9848 54.4126 28.9829 54.3727 28.9803 54.332L28.9868 54.452ZM61.8248 54.452C61.8229 54.4126 61.8209 54.3727 61.8183 54.332L61.8248 54.452ZM11.5541 56.6332L12.0909 58.9133H12.6511H12.8645L10.9946 51.528H10.1162L8.24757 58.9133H9.01924L9.55666 56.6332H11.5541ZM86.0294 52.1897H85.129C84.3828 52.1897 83.9214 52.5216 83.9214 53.4853C83.9214 54.4815 84.3171 54.9581 84.9539 54.9581H86.0294V52.1897ZM86.0294 58.9106V55.6224H85.2064L83.6286 58.9106L82.818 58.91L84.416 55.5673C83.5154 55.2574 83.1529 54.393 83.1529 53.4853C83.1529 52.173 84.0412 51.5417 84.7607 51.5254H86.7647V58.9106H86.0294ZM78.1353 58.9008H77.3993V54.3713L77.4325 52.6988L77.4104 52.6765L75.2365 58.9008H74.3146V51.5136H75.05V56.0548L75.0174 57.7051L75.0389 57.7273L77.2132 51.5136H78.1353V58.9008ZM67.2357 55.6119H68.3339C69.3437 55.6119 70.1122 54.8532 70.1122 53.4761C70.1122 52.2113 69.3879 51.5136 68.0925 51.5136H66.5004V58.9008H67.2357V55.6119ZM67.2357 52.1783H68.0814C68.8721 52.1783 69.3437 52.5657 69.3437 53.4761C69.3437 54.41 68.9489 54.9305 68.2682 54.9417L67.2357 54.9528V52.1783ZM59.8058 51.4137C58.6341 51.4137 58.1376 52.3372 57.9276 53.3395L57.9263 53.3461C57.8983 53.482 57.8749 53.6192 57.856 53.7556L57.8554 53.7615L57.8469 53.8285V53.8292L57.8384 53.8941L57.8378 53.9039L57.8313 53.9618L57.8293 53.9782C57.815 54.1113 57.8046 54.2433 57.7968 54.3713V54.374L57.7935 54.4264L57.7922 54.4494L57.7896 54.5001V54.5033L57.7877 54.5466L57.7864 54.5676L57.7844 54.6181L57.7838 54.6305L57.7818 54.6891V54.693L57.7805 54.754L57.7799 54.7586L57.7786 54.8143V54.8267L57.7779 54.8735L57.7773 54.8932L57.7766 54.9312V54.9581L57.776 54.9882V55.0219L57.7753 55.0435V55.0835V55.0979V55.1432V55.1504V55.2017V55.2424V55.2476L57.7747 55.285V55.2961V55.3295V55.3472V55.377V55.4012V55.4255L57.7753 55.4569V55.476V55.5153V55.5284L57.776 55.5758V55.5824L57.7766 55.6374V55.6381L57.7779 55.6945V55.7023L57.7792 55.753V55.7688L57.7805 55.8127L57.7812 55.8363L57.7825 55.8737V55.8809C57.7838 55.9198 57.7857 55.9591 57.7877 55.9997L57.7903 56.0489L57.7909 56.064L57.7916 56.0771L57.7948 56.1291L57.7987 56.196C57.8053 56.2834 57.8124 56.3719 57.8215 56.4632L57.8228 56.4744L57.8287 56.5301L57.8306 56.5465C57.8352 56.5891 57.841 56.6319 57.8462 56.6752L57.8489 56.6922C57.8671 56.8281 57.8905 56.9652 57.9191 57.1017L57.9198 57.107L57.9341 57.1728L57.9354 57.1787C57.9725 57.3401 58.0174 57.4994 58.0727 57.6531L58.0766 57.6642L58.0974 57.7201L58.102 57.7326C58.1091 57.7516 58.1167 57.77 58.1245 57.789L58.1285 57.7988C58.1369 57.8185 58.1454 57.8381 58.1538 57.858V57.8587C58.2013 57.9655 58.254 58.0687 58.3139 58.1657L58.3146 58.1664C58.325 58.1847 58.3367 58.2018 58.3478 58.2203L58.3523 58.2269C58.3634 58.2426 58.3738 58.259 58.3848 58.2747L58.3933 58.2872C58.4037 58.3016 58.4141 58.3154 58.4252 58.3298L58.4349 58.3429C58.4467 58.358 58.4584 58.3737 58.4707 58.389L58.4714 58.3897C58.541 58.4749 58.6172 58.5536 58.7017 58.6239L58.7076 58.6292C58.7213 58.641 58.7356 58.6521 58.7506 58.6633L58.7636 58.6738C58.7772 58.6842 58.7916 58.6941 58.8059 58.7046L58.8195 58.7144C58.8345 58.7242 58.8501 58.7341 58.8651 58.7448L58.8774 58.7526C58.8931 58.7618 58.9087 58.771 58.9243 58.7802L58.9393 58.7887C59.1761 58.9226 59.4618 59 59.8058 59C60.0362 59 60.2399 58.9646 60.4208 58.8995L60.4227 58.8988C60.4865 58.8759 60.5477 58.849 60.6056 58.8195L60.6153 58.8143C60.6323 58.8057 60.6485 58.7966 60.6648 58.7874L60.6778 58.7802C60.6941 58.771 60.7097 58.7612 60.7253 58.7513L60.7377 58.7435C60.7526 58.7334 60.7676 58.7236 60.7819 58.7131L60.7969 58.7026C60.8112 58.6928 60.8249 58.6829 60.8379 58.6724L60.8529 58.6613C60.8665 58.6502 60.8802 58.6397 60.8932 58.6285L60.9023 58.6207C60.9661 58.5669 61.0253 58.5077 61.0806 58.4448L61.0884 58.4362C61.1008 58.4218 61.1132 58.4074 61.1249 58.3923L61.132 58.3836C61.1437 58.3691 61.1548 58.3547 61.1659 58.3403L61.1769 58.3259C61.1873 58.3121 61.1978 58.2977 61.2073 58.2833L61.2164 58.2708C61.2275 58.2551 61.2379 58.2387 61.2489 58.223L61.2535 58.2157C61.2646 58.1985 61.2756 58.1808 61.2867 58.1631L61.2886 58.1598C61.3459 58.0654 61.3973 57.9662 61.4435 57.8626L61.45 57.848L61.4715 57.7975L61.4787 57.7805L61.5001 57.726L61.5047 57.7142C61.5118 57.6959 61.519 57.6773 61.5255 57.659L61.5314 57.6432L61.5502 57.5888L61.5554 57.5744C61.5841 57.4896 61.6095 57.4031 61.6329 57.3157L61.6355 57.3065L61.6485 57.254L61.6544 57.2317L61.6674 57.1773L61.6706 57.161L61.6836 57.1037L61.6875 57.0853L61.6986 57.0316L61.7025 57.0119L61.7136 56.9547L61.7142 56.9507C61.7357 56.836 61.7533 56.7211 61.7676 56.6068L61.7695 56.595L61.776 56.5425L61.7786 56.5189L61.7845 56.4678L61.7865 56.4468L61.7917 56.3994L61.7943 56.3706L61.7982 56.3286L61.7988 56.3214L61.804 56.2631L61.8047 56.2537L61.8099 56.1875V56.1868L61.8144 56.1212L61.8151 56.1134L61.8183 56.0555L61.819 56.0397L61.8216 55.9912L61.8229 55.9683L61.8248 55.9283L61.8255 55.9158L61.8274 55.8704V55.8664L61.8287 55.8284L61.8294 55.8055L61.8301 55.7865L61.8314 55.7465L61.8327 55.6958V55.6879L61.834 55.6315L61.8353 55.5765V55.5699L61.8359 55.5232V55.51L61.8366 55.4714V55.4524V55.4215V55.3973V55.3735V55.3446V55.3276V55.2941V55.2837V55.2463V55.241V55.2017V55.1595V55.1543V55.1163V55.1045V55.0704V55.0527V55.0232V54.9981V54.9738V54.9417V54.9227L61.8359 54.8827V54.8702L61.8353 54.8215V54.8156L61.834 54.7599V54.7592L61.8327 54.7022V54.6943L61.8314 54.6436L61.8301 54.5958L61.8294 54.5833L61.8287 54.5597L61.8274 54.5223L61.8268 54.5086L61.8255 54.4671L61.8248 54.452C61.8229 54.4126 61.8209 54.3727 61.8183 54.332L61.8151 54.2728L61.8144 54.2662L61.8099 54.2V54.1987L61.8047 54.1329L61.804 54.1231L61.7988 54.0654V54.0628L61.7943 54.0176L61.791 53.9841L61.7871 53.9413L61.7845 53.9197L61.7786 53.8653L61.776 53.8476L61.7695 53.7945L61.7676 53.7752C61.7533 53.6671 61.7363 53.558 61.7162 53.4485L61.7136 53.4322L61.7025 53.3769L61.6993 53.3598L61.6856 53.2962V53.2936L61.6706 53.2252L61.6693 53.2213L61.6544 53.159L61.6498 53.14L61.6355 53.0856L61.6335 53.0784C61.6042 52.9667 61.5698 52.8564 61.5307 52.7495L61.5268 52.7384L61.506 52.6837L61.5008 52.67C61.493 52.6509 61.4858 52.6319 61.478 52.6129L61.4754 52.6077C61.422 52.4803 61.3609 52.3581 61.2906 52.2441L61.288 52.2395C61.2769 52.2218 61.2652 52.2041 61.2542 52.1864L61.2509 52.1816C61.2392 52.1639 61.2275 52.1468 61.2151 52.1298L61.2121 52.1252C61.1997 52.1081 61.1873 52.0911 61.175 52.0747L61.1717 52.0701C61.1594 52.0537 61.1463 52.0373 61.1327 52.021L61.1307 52.0183C61.0611 51.9329 60.985 51.8555 60.901 51.7852L60.8971 51.7826C60.8821 51.7694 60.8665 51.757 60.8509 51.7452L60.8431 51.7393C60.8275 51.7275 60.8112 51.7157 60.7949 51.7045L60.7884 51.7C60.7715 51.6882 60.754 51.677 60.737 51.6659L60.7338 51.6639C60.7149 51.6519 60.6967 51.6407 60.6778 51.6296H60.6772C60.439 51.4932 60.152 51.4137 59.8058 51.4137ZM59.8058 52.1114C61.1014 52.1114 61.0683 53.8063 61.0683 55.2017C61.0683 56.4862 61.0793 58.3023 59.8058 58.3023C58.774 58.3023 58.5436 57.195 58.5436 55.2017C58.5436 54.1159 58.5104 52.1114 59.8058 52.1114ZM51.9805 58.9008V52.1796H53.375L53.7529 51.5195V51.5155H49.4398L49.4756 51.5778L49.8205 52.1796H51.2454V58.9008H51.9805ZM44.3862 56.6182L44.9224 58.8988H45.4834H45.6962L43.8262 51.5136H42.9477L41.079 58.8988H41.8514L42.3883 56.6182H44.3862ZM44.2099 55.9539H42.5639L43.3758 52.4986H43.398L44.2099 55.9539ZM34.3983 55.6119H35.4959C36.5056 55.6119 37.2748 54.8532 37.2748 53.4761C37.2748 52.2113 36.5499 51.5136 35.2545 51.5136H33.6623V58.9008H34.3983V55.6119ZM34.3983 52.1783H35.2434C36.034 52.1783 36.5056 52.5657 36.5056 53.4761C36.5056 54.41 36.1108 54.9305 35.4302 54.9417L34.3983 54.9528V52.1783ZM26.968 51.4137C25.7967 51.4137 25.2997 52.3372 25.0895 53.3395L25.0882 53.3461C25.0603 53.482 25.0368 53.6192 25.0186 53.7556L25.0173 53.7615L25.0088 53.8285V53.8292L25.0004 53.8941L24.9997 53.9039L24.9932 53.9618L24.9913 53.9782C24.977 54.1113 24.9665 54.2433 24.9587 54.3713V54.374L24.9555 54.4264L24.9542 54.4494L24.9516 54.5001V54.5033L24.9496 54.5466L24.9483 54.5676L24.9464 54.6181V54.6305L24.9444 54.6891V54.693L24.9425 54.754L24.9418 54.7586L24.9405 54.8143V54.8267L24.9399 54.8735L24.9392 54.8932L24.9386 54.9312V54.9581L24.9379 54.9882V55.0219L24.9373 55.0435V55.0835V55.0979V55.1432V55.1504V55.2017V55.2424V55.2476V55.285V55.2961L24.9366 55.3295V55.3472V55.377L24.9373 55.4012V55.4255V55.4569V55.476V55.5153V55.5284L24.9379 55.5758V55.5824L24.9386 55.6374V55.6381L24.9399 55.6945V55.7023L24.9412 55.753V55.7688L24.9425 55.8127L24.9431 55.8363L24.9444 55.8737L24.9451 55.8809C24.9464 55.9198 24.9477 55.9591 24.9496 55.9997L24.9522 56.0489L24.9529 56.064L24.9535 56.0771L24.9568 56.1291L24.9613 56.196C24.9672 56.2834 24.9744 56.3719 24.9835 56.4632L24.9848 56.4744L24.9906 56.5301L24.9926 56.5465C24.9978 56.5891 25.003 56.6319 25.0088 56.6752L25.0108 56.6922C25.029 56.8281 25.0524 56.9652 25.0811 57.1017L25.0824 57.107L25.0967 57.1728L25.098 57.1787C25.1344 57.3401 25.1793 57.4994 25.2346 57.6531L25.2386 57.6642L25.2594 57.7201L25.2639 57.7326C25.2717 57.7516 25.2789 57.77 25.2867 57.789L25.2906 57.7988C25.2991 57.8185 25.3075 57.8381 25.316 57.858V57.8587C25.3635 57.9655 25.4162 58.0687 25.4761 58.1657L25.4767 58.1664C25.4878 58.1847 25.4988 58.2018 25.5106 58.2203L25.5145 58.2269C25.5255 58.2426 25.5359 58.259 25.547 58.2747L25.5561 58.2872C25.5659 58.3016 25.5767 58.3154 25.5871 58.3298L25.5969 58.3429C25.6086 58.358 25.6203 58.3737 25.6327 58.389L25.6333 58.3897C25.703 58.4749 25.7797 58.5536 25.8637 58.6239L25.8695 58.6292C25.8839 58.641 25.8982 58.6521 25.9125 58.6633L25.9255 58.6738C25.9398 58.6842 25.9535 58.6941 25.9678 58.7046L25.9821 58.7144C25.9964 58.7242 26.0121 58.7341 26.0277 58.7448L26.0394 58.7526C26.055 58.7618 26.0706 58.771 26.0862 58.7802L26.1012 58.7887C26.3387 58.9226 26.6238 59 26.968 59C27.1981 59 27.4018 58.9646 27.5827 58.8995L27.5847 58.8988C27.6484 58.8759 27.7096 58.849 27.7682 58.8195L27.7773 58.8143C27.7942 58.8057 27.8105 58.7966 27.8267 58.7874L27.8398 58.7802C27.856 58.771 27.8716 58.7612 27.8873 58.7513L27.8996 58.7435C27.9146 58.7334 27.9296 58.7236 27.9445 58.7131L27.9595 58.7026C27.9732 58.6928 27.9868 58.6829 27.9998 58.6724L28.0155 58.6613C28.0291 58.6502 28.0421 58.6397 28.0552 58.6285L28.0649 58.6207C28.128 58.5669 28.1873 58.5077 28.2426 58.4448L28.2504 58.4362C28.2627 58.4218 28.2751 58.4074 28.2875 58.3923L28.2946 58.3836C28.3057 58.3691 28.3167 58.3547 28.3278 58.3403L28.3389 58.3259C28.3493 58.3121 28.3597 58.2977 28.3695 58.2833L28.3786 58.2708C28.3896 58.2551 28.4007 58.2387 28.4111 58.223L28.4157 58.2157C28.4267 58.1985 28.4378 58.1808 28.4488 58.1631L28.4508 58.1598C28.5081 58.0654 28.5595 57.9662 28.6057 57.8626L28.6122 57.848L28.6337 57.7975L28.6408 57.7805L28.6621 57.726L28.6675 57.7142C28.674 57.6959 28.6809 57.6773 28.6881 57.659L28.6933 57.6432L28.7128 57.5888L28.7174 57.5744C28.746 57.4896 28.7714 57.4031 28.7948 57.3157L28.7974 57.3065L28.8104 57.254L28.8163 57.2317L28.8293 57.1773L28.8332 57.161L28.8456 57.1037L28.8495 57.0853L28.8605 57.0316L28.8645 57.0119L28.8755 56.9547L28.8762 56.9507C28.8976 56.836 28.9152 56.7211 28.9302 56.6068L28.9315 56.595L28.938 56.5425L28.9406 56.5189L28.9464 56.4678L28.9484 56.4468L28.9536 56.3994L28.9562 56.3706L28.9601 56.3286L28.9608 56.3214L28.966 56.2631L28.9666 56.2537L28.9718 56.1875V56.1868L28.9764 56.1212L28.977 56.1134L28.9803 56.0555L28.9809 56.0397L28.9842 55.9912L28.9848 55.9683L28.9868 55.9283L28.9874 55.9158L28.9894 55.8704V55.8664L28.9907 55.8284L28.992 55.8055L28.9926 55.7865L28.9933 55.7465L28.9946 55.6958L28.9952 55.6879L28.9965 55.6315L28.9972 55.5765V55.5699L28.9979 55.5232V55.51L28.9985 55.4714V55.4524V55.4215V55.3973V55.3735L28.9992 55.3446V55.3276V55.2941V55.2837V55.2463V55.241V55.2017V55.1595V55.1543V55.1163V55.1045V55.0704V55.0527L28.9985 55.0232V54.9981V54.9738V54.9417V54.9227L28.9979 54.8827V54.8702L28.9972 54.8215V54.8156L28.9965 54.7599V54.7592L28.9952 54.7022L28.9946 54.6943L28.9933 54.6436L28.992 54.5958V54.5833L28.9907 54.5597L28.9894 54.5223L28.9887 54.5086L28.9874 54.4671L28.9868 54.452C28.9848 54.4126 28.9829 54.3727 28.9803 54.332L28.977 54.2728L28.9764 54.2662L28.9718 54.2V54.1987L28.9666 54.1329L28.966 54.1231L28.9608 54.0654V54.0628L28.9562 54.0176L28.9529 53.9841L28.949 53.9413L28.9464 53.9197L28.9406 53.8653L28.9386 53.8476L28.9321 53.7945L28.9295 53.7752C28.9152 53.6671 28.8989 53.558 28.8788 53.4485L28.8755 53.4322L28.8645 53.3769L28.8612 53.3598L28.8482 53.2962L28.8475 53.2936L28.8326 53.2252L28.8313 53.2213L28.8163 53.159L28.8117 53.14L28.7974 53.0856L28.7955 53.0784C28.7662 52.9667 28.7317 52.8564 28.6927 52.7495L28.6888 52.7384L28.6681 52.6837L28.6629 52.67C28.6558 52.6509 28.648 52.6319 28.6402 52.6129L28.6376 52.6077C28.5842 52.4803 28.523 52.3581 28.4528 52.2441L28.4501 52.2395C28.4391 52.2218 28.428 52.2041 28.4163 52.1864L28.4131 52.1816C28.4013 52.1639 28.3896 52.1468 28.3773 52.1298L28.374 52.1252C28.3617 52.1081 28.3499 52.0911 28.3369 52.0747L28.3343 52.0701C28.3213 52.0537 28.3083 52.0373 28.2946 52.021L28.2927 52.0183C28.223 51.9329 28.1469 51.8555 28.063 51.7852L28.0597 51.7826C28.0441 51.7694 28.0285 51.757 28.0129 51.7452L28.005 51.7393C27.9894 51.7275 27.9732 51.7157 27.9569 51.7045L27.9504 51.7C27.9335 51.6882 27.9165 51.677 27.899 51.6659L27.8957 51.6639C27.8775 51.6519 27.8586 51.6407 27.8398 51.6296H27.8391C27.6009 51.4932 27.314 51.4137 26.968 51.4137ZM26.968 52.1114C28.2634 52.1114 28.2309 53.8063 28.2309 55.2017C28.2309 56.4862 28.2413 58.3023 26.968 58.3023C25.9359 58.3023 25.7056 57.195 25.7056 55.2017C25.7056 54.1159 25.6724 52.1114 26.968 52.1114ZM17.3969 54.412V52.1789H17.1842L16.8393 51.5765L16.8042 51.5149L20.6684 51.5136L20.2903 52.1789H18.1328V54.45H19.2194C20.2045 54.4736 21.0086 55.1523 21.0086 56.664V56.6752V56.6863C21.0086 58.1972 20.2045 58.8759 19.2194 58.9001H18.1328H18.0463H17.7691H17.3969H17.1842L16.8042 58.2367H17.3969V54.412ZM18.1328 55.1137V58.2367H19.1316C19.7906 58.2367 20.2402 57.749 20.2402 56.6752C20.2402 55.6007 19.7906 55.1137 19.1316 55.1137H18.1328ZM3.84335 58.9133H4.40357H4.61632L2.74701 51.528H1.86865L0 58.9133H0.771664C1.516 55.7517 1.44378 56.1409 2.29677 52.5131H2.3189C3.03525 55.5614 3.20637 56.2065 3.84335 58.9133ZM11.3785 55.9683H9.73168L10.5443 52.5131H10.5665L11.3785 55.9683Z" fill="#1288E3"/>
</g>
<defs>
<linearGradient id="paint0_linear_129_180" x1="78.4137" y1="31.6194" x2="69.3824" y2="35.934" gradientUnits="userSpaceOnUse">
<stop stop-color="#0761A6"/>
<stop offset="1" stop-color="#1288E3"/>
</linearGradient>
<linearGradient id="paint1_linear_129_180" x1="61.2777" y1="39.0187" x2="61.4985" y2="27.859" gradientUnits="userSpaceOnUse">
<stop stop-color="#0761A6"/>
<stop offset="0.419608" stop-color="#0C74C4"/>
<stop offset="1" stop-color="#1288E3"/>
</linearGradient>
<linearGradient id="paint2_linear_129_180" x1="68.2189" y1="16.6303" x2="57.5361" y2="23.4379" gradientUnits="userSpaceOnUse">
<stop stop-color="#0761A6"/>
<stop offset="1" stop-color="#1288E3" stop-opacity="0"/>
</linearGradient>
<linearGradient id="paint3_linear_129_180" x1="11.2793" y1="35.7769" x2="21.1862" y2="40.9569" gradientUnits="userSpaceOnUse">
<stop stop-color="#0761A6"/>
<stop offset="1" stop-color="#1288E3"/>
</linearGradient>
<linearGradient id="paint4_linear_129_180" x1="38.2848" y1="38.5122" x2="38.1745" y2="27.5307" gradientUnits="userSpaceOnUse">
<stop stop-color="#0761A6"/>
<stop offset="1" stop-color="#1288E3"/>
</linearGradient>
<linearGradient id="paint5_linear_129_180" x1="27.5477" y1="13.895" x2="17.4051" y2="20.7739" gradientUnits="userSpaceOnUse">
<stop stop-color="#0761A6"/>
<stop offset="1" stop-color="#1288E3"/>
</linearGradient>
<clipPath id="clip0_129_180">
<rect width="86.7647" height="59" fill="white"/>
</clipPath>
</defs>
</svg>
